<svg xmlns="http://www.w3.org/2000/svg" xmlns:xlink="http://www.w3.org/1999/xlink" width="605" zoomAndPan="magnify" viewBox="0 0 453.75 84.749999" height="113" preserveAspectRatio="xMidYMid meet" version="1.0"><defs><g/></defs><g fill="#ffffff" fill-opacity="1"><g transform="translate(1.290443, 66.813551)"><g><path d="M 5.796875 -17.40625 L 5.796875 -24.921875 L 35.171875 -39.265625 L 35.171875 -31.0625 L 14.34375 -21.171875 L 35.171875 -11.265625 L 35.171875 -3.078125 Z M 5.796875 -17.40625 "/></g></g></g><g fill="#ffffff" fill-opacity="1"><g transform="translate(42.260395, 66.813551)"><g><path d="M 20.484375 0.6875 C 17.753906 0.6875 15.21875 0.175781 12.875 -0.84375 C 10.53125 -1.875 8.503906 -3.410156 6.796875 -5.453125 C 5.085938 -7.503906 3.753906 -10.066406 2.796875 -13.140625 C 1.835938 -16.210938 1.359375 -19.796875 1.359375 -23.890625 C 1.359375 -27.992188 1.835938 -31.582031 2.796875 -34.65625 C 3.753906 -37.726562 5.085938 -40.285156 6.796875 -42.328125 C 8.503906 -44.378906 10.53125 -45.914062 12.875 -46.9375 C 15.21875 -47.96875 17.753906 -48.484375 20.484375 -48.484375 C 25.304688 -48.484375 29.226562 -47.101562 32.25 -44.34375 C 35.28125 -41.59375 37.390625 -37.738281 38.578125 -32.78125 L 29.359375 -32.78125 C 28.492188 -35.507812 27.273438 -37.441406 25.703125 -38.578125 C 24.140625 -39.710938 22.398438 -40.28125 20.484375 -40.28125 C 19.117188 -40.28125 17.832031 -39.984375 16.625 -39.390625 C 15.414062 -38.804688 14.367188 -37.863281 13.484375 -36.5625 C 12.597656 -35.269531 11.890625 -33.585938 11.359375 -31.515625 C 10.835938 -29.441406 10.578125 -26.898438 10.578125 -23.890625 C 10.578125 -20.890625 10.835938 -18.351562 11.359375 -16.28125 C 11.890625 -14.207031 12.597656 -12.519531 13.484375 -11.21875 C 14.367188 -9.925781 15.414062 -8.984375 16.625 -8.390625 C 17.832031 -7.804688 19.117188 -7.515625 20.484375 -7.515625 C 22.398438 -7.515625 24.140625 -8.082031 25.703125 -9.21875 C 27.273438 -10.351562 28.492188 -12.285156 29.359375 -15.015625 L 38.578125 -15.015625 C 37.390625 -10.054688 35.28125 -6.195312 32.25 -3.4375 C 29.226562 -0.6875 25.304688 0.6875 20.484375 0.6875 Z M 20.484375 0.6875 "/></g></g></g><g fill="#ffffff" fill-opacity="1"><g transform="translate(83.230348, 66.813551)"><g><path d="M 20.484375 0.6875 C 17.929688 0.6875 15.582031 0.253906 13.4375 -0.609375 C 11.300781 -1.472656 9.457031 -2.710938 7.90625 -4.328125 C 6.363281 -5.953125 5.171875 -7.921875 4.328125 -10.234375 C 3.492188 -12.554688 3.078125 -15.175781 3.078125 -18.09375 C 3.078125 -21.007812 3.492188 -23.625 4.328125 -25.9375 C 5.171875 -28.257812 6.363281 -30.226562 7.90625 -31.84375 C 9.457031 -33.46875 11.300781 -34.710938 13.4375 -35.578125 C 15.582031 -36.441406 17.929688 -36.875 20.484375 -36.875 C 23.035156 -36.875 25.378906 -36.441406 27.515625 -35.578125 C 29.648438 -34.710938 31.476562 -33.46875 33 -31.84375 C 34.53125 -30.226562 35.726562 -28.257812 36.59375 -25.9375 C 37.457031 -23.625 37.890625 -21.007812 37.890625 -18.09375 C 37.890625 -15.175781 37.457031 -12.554688 36.59375 -10.234375 C 35.726562 -7.921875 34.53125 -5.953125 33 -4.328125 C 31.476562 -2.710938 29.648438 -1.472656 27.515625 -0.609375 C 25.378906 0.253906 23.035156 0.6875 20.484375 0.6875 Z M 20.484375 -6.828125 C 23.210938 -6.828125 25.429688 -7.757812 27.140625 -9.625 C 28.847656 -11.488281 29.703125 -14.3125 29.703125 -18.09375 C 29.703125 -21.875 28.847656 -24.695312 27.140625 -26.5625 C 25.429688 -28.425781 23.210938 -29.359375 20.484375 -29.359375 C 17.753906 -29.359375 15.535156 -28.425781 13.828125 -26.5625 C 12.117188 -24.695312 11.265625 -21.875 11.265625 -18.09375 C 11.265625 -14.3125 12.117188 -11.488281 13.828125 -9.625 C 15.535156 -7.757812 17.753906 -6.828125 20.484375 -6.828125 Z M 20.484375 -6.828125 "/></g></g></g><g fill="#ffffff" fill-opacity="1"><g transform="translate(124.200301, 66.813551)"><g><path d="M 17.75 0.6875 C 15.613281 0.6875 13.644531 0.300781 11.84375 -0.46875 C 10.050781 -1.25 8.503906 -2.410156 7.203125 -3.953125 C 5.898438 -5.503906 4.882812 -7.460938 4.15625 -9.828125 C 3.4375 -12.203125 3.078125 -14.957031 3.078125 -18.09375 C 3.078125 -21.238281 3.4375 -23.992188 4.15625 -26.359375 C 4.882812 -28.722656 5.898438 -30.675781 7.203125 -32.21875 C 8.503906 -33.769531 10.050781 -34.929688 11.84375 -35.703125 C 13.644531 -36.484375 15.613281 -36.875 17.75 -36.875 C 19.03125 -36.875 20.179688 -36.703125 21.203125 -36.359375 C 22.222656 -36.015625 23.117188 -35.625 23.890625 -35.1875 C 24.671875 -34.757812 25.3125 -34.316406 25.8125 -33.859375 C 26.3125 -33.410156 26.695312 -33.050781 26.96875 -32.78125 L 27.3125 -32.78125 L 27.3125 -47.796875 L 35.5 -47.796875 L 35.5 0 L 28.34375 0 L 27.65625 -3.75 L 27.3125 -3.75 C 27.132812 -3.476562 26.78125 -3.101562 26.25 -2.625 C 25.726562 -2.144531 25.046875 -1.65625 24.203125 -1.15625 C 23.359375 -0.65625 22.390625 -0.222656 21.296875 0.140625 C 20.210938 0.503906 19.03125 0.6875 17.75 0.6875 Z M 19.453125 -6.828125 C 20.546875 -6.828125 21.59375 -7.066406 22.59375 -7.546875 C 23.601562 -8.023438 24.484375 -8.726562 25.234375 -9.65625 C 25.984375 -10.59375 26.570312 -11.765625 27 -13.171875 C 27.4375 -14.585938 27.65625 -16.226562 27.65625 -18.09375 C 27.65625 -19.957031 27.4375 -21.59375 27 -23 C 26.570312 -24.414062 25.984375 -25.585938 25.234375 -26.515625 C 24.484375 -27.453125 23.601562 -28.160156 22.59375 -28.640625 C 21.59375 -29.117188 20.546875 -29.359375 19.453125 -29.359375 C 17.046875 -29.359375 15.078125 -28.425781 13.546875 -26.5625 C 12.023438 -24.695312 11.265625 -21.875 11.265625 -18.09375 C 11.265625 -14.3125 12.023438 -11.488281 13.546875 -9.625 C 15.078125 -7.757812 17.046875 -6.828125 19.453125 -6.828125 Z M 19.453125 -6.828125 "/></g></g></g><g fill="#ffffff" fill-opacity="1"><g transform="translate(165.170253, 66.813551)"><g><path d="M 20.828125 0.6875 C 18.097656 0.6875 15.640625 0.265625 13.453125 -0.578125 C 11.265625 -1.421875 9.394531 -2.640625 7.84375 -4.234375 C 6.300781 -5.828125 5.117188 -7.785156 4.296875 -10.109375 C 3.484375 -12.429688 3.078125 -15.09375 3.078125 -18.09375 C 3.078125 -21.09375 3.484375 -23.753906 4.296875 -26.078125 C 5.117188 -28.398438 6.300781 -30.359375 7.84375 -31.953125 C 9.394531 -33.546875 11.265625 -34.765625 13.453125 -35.609375 C 15.640625 -36.453125 18.097656 -36.875 20.828125 -36.875 C 23.378906 -36.875 25.703125 -36.460938 27.796875 -35.640625 C 29.890625 -34.816406 31.6875 -33.628906 33.1875 -32.078125 C 34.6875 -30.535156 35.84375 -28.671875 36.65625 -26.484375 C 37.476562 -24.304688 37.890625 -21.851562 37.890625 -19.125 C 37.890625 -18.625 37.867188 -18.144531 37.828125 -17.6875 C 37.785156 -17.226562 37.738281 -16.816406 37.6875 -16.453125 C 37.644531 -16.046875 37.597656 -15.679688 37.546875 -15.359375 L 11.265625 -15.359375 C 11.628906 -12.953125 12.570312 -10.925781 14.09375 -9.28125 C 15.625 -7.644531 17.753906 -6.828125 20.484375 -6.828125 C 22.710938 -6.828125 24.441406 -7.25 25.671875 -8.09375 C 26.898438 -8.9375 27.765625 -9.878906 28.265625 -10.921875 L 36.46875 -10.921875 C 36.144531 -9.648438 35.628906 -8.332031 34.921875 -6.96875 C 34.222656 -5.601562 33.257812 -4.347656 32.03125 -3.203125 C 30.800781 -2.066406 29.265625 -1.132812 27.421875 -0.40625 C 25.578125 0.320312 23.378906 0.6875 20.828125 0.6875 Z M 29.703125 -21.171875 C 29.378906 -23.578125 28.441406 -25.539062 26.890625 -27.0625 C 25.347656 -28.59375 23.210938 -29.359375 20.484375 -29.359375 C 17.753906 -29.359375 15.625 -28.59375 14.09375 -27.0625 C 12.570312 -25.539062 11.628906 -23.578125 11.265625 -21.171875 Z M 29.703125 -21.171875 "/></g></g></g><g fill="#ffffff" fill-opacity="1"><g transform="translate(206.140206, 66.813551)"><g><path d="M 3.75 -47.796875 L 14.6875 -47.796875 L 20.28125 -29.015625 L 20.625 -29.015625 L 26.28125 -47.796875 L 37.21875 -47.796875 L 37.21875 0 L 28 0 L 28 -20.484375 L 31.40625 -36.1875 L 30.046875 -36.1875 L 27.3125 -26.625 L 23.015625 -12.96875 L 17.890625 -12.96875 L 13.796875 -26.625 L 10.921875 -36.1875 L 9.5625 -36.1875 L 12.96875 -20.484375 L 12.96875 0 L 3.75 0 Z M 3.75 -47.796875 "/></g></g></g><g fill="#ffffff" fill-opacity="1"><g transform="translate(247.110159, 66.813551)"><g><path d="M 20.484375 0.6875 C 17.929688 0.6875 15.582031 0.253906 13.4375 -0.609375 C 11.300781 -1.472656 9.457031 -2.710938 7.90625 -4.328125 C 6.363281 -5.953125 5.171875 -7.921875 4.328125 -10.234375 C 3.492188 -12.554688 3.078125 -15.175781 3.078125 -18.09375 C 3.078125 -21.007812 3.492188 -23.625 4.328125 -25.9375 C 5.171875 -28.257812 6.363281 -30.226562 7.90625 -31.84375 C 9.457031 -33.46875 11.300781 -34.710938 13.4375 -35.578125 C 15.582031 -36.441406 17.929688 -36.875 20.484375 -36.875 C 23.035156 -36.875 25.378906 -36.441406 27.515625 -35.578125 C 29.648438 -34.710938 31.476562 -33.46875 33 -31.84375 C 34.53125 -30.226562 35.726562 -28.257812 36.59375 -25.9375 C 37.457031 -23.625 37.890625 -21.007812 37.890625 -18.09375 C 37.890625 -15.175781 37.457031 -12.554688 36.59375 -10.234375 C 35.726562 -7.921875 34.53125 -5.953125 33 -4.328125 C 31.476562 -2.710938 29.648438 -1.472656 27.515625 -0.609375 C 25.378906 0.253906 23.035156 0.6875 20.484375 0.6875 Z M 20.484375 -6.828125 C 23.210938 -6.828125 25.429688 -7.757812 27.140625 -9.625 C 28.847656 -11.488281 29.703125 -14.3125 29.703125 -18.09375 C 29.703125 -21.875 28.847656 -24.695312 27.140625 -26.5625 C 25.429688 -28.425781 23.210938 -29.359375 20.484375 -29.359375 C 17.753906 -29.359375 15.535156 -28.425781 13.828125 -26.5625 C 12.117188 -24.695312 11.265625 -21.875 11.265625 -18.09375 C 11.265625 -14.3125 12.117188 -11.488281 13.828125 -9.625 C 15.535156 -7.757812 17.753906 -6.828125 20.484375 -6.828125 Z M 20.484375 -6.828125 "/></g></g></g><g fill="#ffffff" fill-opacity="1"><g transform="translate(288.080111, 66.813551)"><g><path d="M 20.828125 0.6875 C 18.273438 0.6875 15.925781 0.253906 13.78125 -0.609375 C 11.644531 -1.472656 9.800781 -2.710938 8.25 -4.328125 C 6.707031 -5.953125 5.515625 -7.921875 4.671875 -10.234375 C 3.828125 -12.554688 3.40625 -15.175781 3.40625 -18.09375 C 3.40625 -21.007812 3.828125 -23.625 4.671875 -25.9375 C 5.515625 -28.257812 6.707031 -30.226562 8.25 -31.84375 C 9.800781 -33.46875 11.644531 -34.710938 13.78125 -35.578125 C 15.925781 -36.441406 18.273438 -36.875 20.828125 -36.875 C 25.109375 -36.875 28.644531 -35.742188 31.4375 -33.484375 C 34.238281 -31.234375 36.164062 -28.035156 37.21875 -23.890625 L 29.015625 -23.890625 C 28.335938 -25.628906 27.28125 -26.972656 25.84375 -27.921875 C 24.40625 -28.878906 22.734375 -29.359375 20.828125 -29.359375 C 18.097656 -29.359375 15.878906 -28.425781 14.171875 -26.5625 C 12.460938 -24.695312 11.609375 -21.875 11.609375 -18.09375 C 11.609375 -14.3125 12.460938 -11.488281 14.171875 -9.625 C 15.878906 -7.757812 18.097656 -6.828125 20.828125 -6.828125 C 22.734375 -6.828125 24.40625 -7.304688 25.84375 -8.265625 C 27.28125 -9.222656 28.335938 -10.566406 29.015625 -12.296875 L 37.21875 -12.296875 C 36.164062 -8.148438 34.238281 -4.945312 31.4375 -2.6875 C 28.644531 -0.4375 25.109375 0.6875 20.828125 0.6875 Z M 20.828125 0.6875 "/></g></g></g><g fill="#ffffff" fill-opacity="1"><g transform="translate(329.050064, 66.813551)"><g><path d="M 5.796875 -47.796875 L 14 -47.796875 L 14 -20.140625 L 27.65625 -36.1875 L 37.546875 -36.1875 L 22.53125 -18.4375 L 38.578125 0 L 28.671875 0 L 14 -16.734375 L 14 0 L 5.796875 0 Z M 5.796875 -47.796875 "/></g></g></g><g fill="#ffffff" fill-opacity="1"><g transform="translate(370.020017, 66.813551)"><g><path d="M 24.578125 -49.84375 L 32.78125 -49.84375 L 12.96875 13.65625 L 4.78125 13.65625 Z M 24.578125 -49.84375 "/></g></g></g><g fill="#ffffff" fill-opacity="1"><g transform="translate(410.989969, 66.813551)"><g><path d="M 5.796875 -11.265625 L 26.625 -21.171875 L 5.796875 -31.0625 L 5.796875 -39.265625 L 35.171875 -24.921875 L 35.171875 -17.40625 L 5.796875 -3.078125 Z M 5.796875 -11.265625 "/></g></g></g></svg>